<svg id="Layer_1" enable-background="new 0 0 512 512" height="512" viewBox="0 0 512 512" width="512" xmlns="http://www.w3.org/2000/svg"><g><g><g><g id="XMLID_454_"><g id="XMLID_455_"><g id="XMLID_456_"><g id="XMLID_457_"><g id="XMLID_458_"><g id="XMLID_459_"><g id="XMLID_460_"><g id="XMLID_461_"><g id="XMLID_462_"><g id="XMLID_463_"><g id="XMLID_464_"><g id="XMLID_465_"><g id="XMLID_466_"><g id="XMLID_467_"><g id="XMLID_468_"><circle cx="256" cy="256" fill="#4f4359" r="256"/></g></g></g></g></g></g></g></g></g></g></g></g></g></g></g></g></g><path d="m511.98 257.604-125.738-125.737-254.376 254.376 125.737 125.737c140.11-.862 253.515-114.266 254.377-254.376z" fill="#372a44"/><g><g><g><g id="XMLID_1259_"><g id="XMLID_1260_"><g id="XMLID_1261_"><g id="XMLID_1262_"><g id="XMLID_1263_"><g id="XMLID_1264_"><g id="XMLID_1265_"><g id="XMLID_1266_"><g id="XMLID_1558_"><g id="XMLID_1559_"><g id="XMLID_1560_"><g id="XMLID_1561_"><g id="XMLID_1562_"><g id="XMLID_1563_"><g id="XMLID_1564_"><circle cx="255.999" cy="256" fill="#fed940" r="179.923"/></g></g></g></g></g></g></g></g></g></g></g></g></g></g></g></g></g><g><g><g id="XMLID_1267_"><g id="XMLID_1268_"><g id="XMLID_1269_"><g id="XMLID_1270_"><g id="XMLID_1271_"><g id="XMLID_1272_"><g id="XMLID_1328_"><g id="XMLID_1329_"><g id="XMLID_1330_"><g id="XMLID_1331_"><g id="XMLID_1332_"><g id="XMLID_1333_"><g id="XMLID_1334_"><g id="XMLID_1335_"><g><path d="m435.923 256c0 99.367-80.557 179.924-179.924 179.924v-359.848c99.368 0 179.924 80.557 179.924 179.924z" fill="#ffc024"/></g></g></g></g></g></g></g></g></g></g></g></g></g></g></g></g></g></g><g><circle cx="193.811" cy="185" fill="#7f6866" r="28.645"/><circle cx="318.189" cy="185" fill="#634c4c" r="28.645"/></g><g><path d="m362.39 250c0 12.61-1.73 24.75-4.96 36.17-3.42 12.17-8.54 23.51-15.03 33.66-3.36 5.27-7.1 10.21-11.17 14.79-19.25 21.66-45.85 35.05-75.23 35.05-35.59 0-67.09-19.65-86.4-49.84-6.49-10.15-11.61-21.49-15.03-33.66-3.23-11.42-4.96-23.56-4.96-36.17z" fill="#7f6866"/><path d="m362.39 250c0 12.61-1.73 24.75-4.96 36.17-3.42 12.17-8.54 23.51-15.03 33.66-3.36 5.27-7.1 10.21-11.17 14.79-19.25 21.66-45.85 35.05-75.23 35.05v-119.67z" fill="#634c4c"/><path d="m328.61 337.45c-18.99 19.99-44.53 32.22-72.61 32.22s-53.61-12.23-72.61-32.22c15.39-12.61 42.16-20.95 72.61-20.95s57.22 8.34 72.61 20.95z" fill="#ff6643"/><path d="m328.61 337.45c-18.99 19.99-44.53 32.22-72.61 32.22v-53.17c30.45 0 57.22 8.34 72.61 20.95z" fill="#ff3b3b"/><path d="m362.39 250c0 12.61-1.73 24.75-4.96 36.17h-202.86c-3.23-11.42-4.96-23.56-4.96-36.17z" fill="#fff"/><path d="m362.39 250c0 12.61-1.73 24.75-4.96 36.17h-101.43v-36.17z" fill="#efe8e6"/></g><path d="" fill="#fed940"/></g></svg>